<svg class="icon" viewBox="0 0 1024 1024" version="1.1" xmlns="http://www.w3.org/2000/svg" p-id="1525" width="128" height="128"><path d="M287.7462869 685.82937047l-106.90385974-44.2476665 23.65797457-102.35085087c-9.70595458-8.27470986-18.81429812-17.38537917-27.20643756-27.21573839l-102.4008454 23.71145722-44.30114915-106.85967794 89.17316803-55.68832232c-1.03012375-12.76377181-1.02896143-25.65892557-0.01278894-38.47501884l-89.16851761-55.61972497 44.24185264-106.8910708 102.40433349 23.6556488c8.29680076-9.72804549 17.3981681-18.82359895 27.19713673-27.19829904l-23.73819854-102.421774 106.86781759-44.28952253 55.6732076 89.15224057c12.79400122-1.01849715 25.67636606-1.0126844 38.47850693 0.00465042l55.61274879-89.17316802 106.90269742 44.24882882-23.65681112 102.35201318c9.7071169 8.27238523 18.8166239 17.38421571 27.20759987 27.2157384l102.40084541-23.71029376 44.29882338 106.8585156-89.17316803 55.68483424c1.03128721 12.76609758 1.03709996 25.64846241 0.01511471 38.47618115l89.1685176 55.62088729-44.2476665 106.90269741-102.38689301-23.71959573c-8.27703563 9.71525656-17.38421571 18.82708705-27.20062482 27.19364864l23.74982515 102.4264244-106.86316603 44.29068485-55.69529852-89.11503496c-12.80214088 1.03128721-25.67985415 1.02663566-38.48315735 0.01278893L287.7462869 685.82937047zM213.74710229 624.63930293l62.69339884 25.95075548 52.34332564-83.91907092 8.8897614 1.05570277c16.53895656 1.9370052 33.31393462 1.93933098 49.85289004-0.0069762l8.88162289-1.03593764 52.40611024 83.84349736 62.67363372-25.99028686-22.33601978-96.33520553 7.00391421-5.54941512c13.17303128-10.43959803 25.03806129-22.31276655 35.26256642-35.27535535l5.54709048-7.04344445 96.33171742 22.32206852 25.94843084-62.69456116-83.89698-52.33518712 1.0347753-8.88394867c1.95328223-16.59127576 1.94165562-33.35462718-0.01395237-49.84940194l-1.0603532-8.88394867 83.91442049-52.40378446-25.97400869-62.68060877-96.33636784 22.30927845-5.54709049-6.99693801c-10.4558762-13.2067488-22.32439317-25.07177881-35.26256641-35.27535536l-7.03414364-5.54011429 22.25347118-96.30846419L448.6281844 57.1641711l-52.3305367 83.90511851-8.88511097-1.05221465c-16.55174549-1.9404933-33.33369974-1.93468056-49.87033053 0.01278892l-8.88278521 1.03942573-52.38983208-83.89698-62.67014562 25.99028686 22.33485746 96.34915678-7.01205272 5.55871709c-13.13466334 10.39425389-25.00666955 22.27439862-35.25559024 35.26372875l-5.54592816 7.01670314-96.34683213-22.26858589-25.95540702 62.7061878 83.91325703 52.32937323-1.04175038 8.88046057c-1.94863181 16.59127576-1.94630717 33.36625379 0.01162662 49.85637813l1.05570275 8.88743676-83.91325702 52.40029637 25.97749679 62.68409687 96.33171742-22.30927845 5.54825281 6.99810033c10.46517702 13.20907458 22.32788126 25.07177881 35.26721684 35.26721685l7.02949206 5.54941512L213.74710229 624.63930293z" p-id="1526"></path><path d="M291.47031366 697.43628809L170.00635972 647.16367427l24.17536166-104.59363834c-7.07367388-6.31793954-13.84737934-13.0951331-20.22461426-20.23507855l-104.6401448 24.23000663L18.98272621 425.14984229l91.1194752-56.9033107c-0.54412841-9.48039739-0.54645418-19.05962157-0.0069762-28.60512708l-91.11831287-56.83587566 50.26796227-121.45000268 104.64595753 24.1741982c6.31793954-7.07251156 13.0881569-13.84156546 20.21647574-20.21298764l-24.25791141-104.66456036 121.42558601-50.32144603 56.89168409 91.10203472c9.50481294-0.53831567 19.06194621-0.53598989 28.60629053 0.0046504l56.82773716-91.12180097 121.4627916 50.27493846-24.1741982 104.5924749c7.07599966 6.31793954 13.84970398 13.0951331 20.22577772 20.23624087l104.6401448-24.22884432 50.3319092 121.41395939-91.1194752 56.89982261c0.5476165 9.50016253 0.5511046 19.08171134 0.01046429 28.60745286l91.11714942 56.83587567-50.27493845 121.46511739-104.62619241-24.23814515c-6.32840382 7.09111437-13.09978351 13.85900596-20.21763807 20.21066302l24.26837456 104.6622357-121.41861094 50.32260835-56.91144922-91.06017867c-9.49900021 0.54529187-19.05613347 0.5476165-28.61326674 0.00697619L291.47031366 697.43628809zM191.67965805 635.99973365l92.34492785 38.22155687 54.43496603-87.27918231 5.63545296 0.44646508c12.30800587 0.97431648 24.80552791 0.97082838 37.00191807-0.01278892l5.63661529-0.45344016 54.5198404 87.23267473 92.30888456-38.25759902-23.24755163-100.2603728 4.30536079-3.66938065c9.39319723-8.00613319 18.19227038-16.80288169 26.15306057-26.14608438l3.66821834-4.30652311 100.21851675 23.21732221 38.21923109-92.34027743-87.2826704-54.44543031 0.44995206-5.63777874c0.98012921-12.29870503 0.97547879-24.7427433-0.0139524-36.98912801l-0.45692824-5.64126683 87.29080892-54.50937612-38.26457522-92.30423414-100.23130683 23.20802138-3.66821834-4.29722228c-8.05380309-9.43505327-16.85636433-18.2411026-26.16701182-26.17515033l-4.30187269-3.66589257 23.15570105-100.18363692-92.34376553-38.22271919-54.43496603 87.28499505-5.63661527-0.44762741c-12.28707843-0.97664111-24.79273784-0.97780457-37.00424271-0.00465042l-5.63429065 0.44878973-54.49426254-87.26522992-92.31121034 38.2564367 23.23360039 100.24758386-4.29373419 3.66938066c-9.41877624 8.04799036-18.22133749 16.8505516-26.16236141 26.16236141l-3.66589255 4.29838459-100.23246915-23.15453873-38.21690645 92.33330124 87.27918231 54.44310454-0.44646509 5.63429063c-0.97780457 12.33707298-0.97315301 24.78227469 0.01162661 36.9914538l0.45576593 5.64010336-87.29080893 54.51286423 38.26690101 92.30539646 100.23130682-23.20802139 3.66821834 4.29722227c8.05496541 9.43505327 16.85869011 18.2411026 26.16701183 26.17747613l4.30071036 3.66589256L191.67965805 635.99973365zM280.16220211 662.19813835l-77.2511684-31.9768651 22.69877281-98.24081898-2.40439774-1.89747496c-13.49625292-10.63260115-25.87750771-23.01269361-36.79380024-36.79147445l-1.89049875-2.38463262-98.27569882 22.76039397-32.00942031-77.24070412 85.58866176-53.4466983-0.36042725-3.02642547c-2.04280818-17.21097885-2.04745858-34.71960033-0.01278894-52.03870679l0.35461338-3.02293738-85.59563795-53.37926326 31.98151666-77.26628313 98.28383733 22.71621331 1.89282339-2.39509691c10.70701238-13.56950183 23.08361562-25.94959315 36.78101132-36.79031215l2.39393345-1.89747494-22.78481064-98.29081353 77.22558939-32.02686079 53.44321021 85.58401133 3.03223934-0.35461338c17.17493555-2.02071726 34.85330694-2.02769346 52.03405638-0.01162661l3.03340167 0.35926494 53.37693748-85.5816867 77.25233073 31.97570279-22.69761048 98.23384279 2.398585 1.88933643c13.52880812 10.66864445 25.90773713 23.05222387 36.79961297 36.80891495l1.88817298 2.38114451 98.28034924-22.75923164 32.00476988 77.2360537-85.58633711 53.44786061 0.36042725 3.02061274c2.04513394 17.2505091 2.05094668 34.75680482 0.01627703 52.03870679l-0.35228873 3.02293739 85.58401133 53.38740176-31.9768651 77.25814461-98.25709602-22.76853249-1.89282339 2.40323543c-10.68608379 13.54857325-23.06385048 25.93099035-36.79380025 36.81124072l-2.3916088 1.89398685 22.78713529 98.27453536-77.22791519 32.02453502-53.46181299-85.531691-3.03688977 0.35461337c-17.14121804 2.01606685-34.81377555 2.02071726-52.01196548 0.00581388l-3.04037786-0.36158957L280.16220211 662.19813835zM224.58317087 619.05733147l48.13446696 19.92580931 51.29924948-82.24366619 14.75309733 1.75214058c15.73322655 1.8439923 31.94198527 1.84282885 47.66939907-0.0081385l14.73682029-1.71842422 51.35156981 82.15530258 48.12051458-19.95487527-21.88606772-94.39587454 11.61970655-9.20484453c12.59751114-9.98266977 23.9474787-21.33612544 33.73598303-33.74528386l9.19554369-11.6766773 94.40517539 21.87560343 19.92115773-48.1321412-82.20994866-51.28297244 1.71609843-14.73449452c1.86491975-15.84484338 1.86143165-31.88268989-0.01162661-47.6775376l-1.76028024-14.74030838 82.2413404-51.35854599-19.94208632-48.12516501-94.39354877 21.8593264-9.20251989-11.60691763c-9.9989468-12.62774056-21.34542627-23.98119622-33.73481957-33.75109773l-11.66505068-9.1885675 21.80700607-94.3830856-48.13446697-19.92348353-51.28529709 82.22855148-14.74612227-1.74632785c-15.72508802-1.84282885-31.93733485-1.84050421-47.6891642 0.01395238l-14.73914606 1.72423695-51.3364551-82.20994867-48.1147007 19.95487526 21.8849054 94.40866349-11.62319466 9.21530881c-12.56960635 9.94778994-23.91724927 21.29659518-33.73249492 33.73714534l-9.2025199 11.64412324-94.41098925-21.82212077-19.92813395 48.14725589 82.23087613 51.28064667-1.73005082 14.7368203c-1.86491975 15.87274703-1.86143165 31.91291931 0.01046428 47.67521294l1.7521406 14.74612228-82.23669 51.35389443 19.94557443 48.12865311 94.38889836-21.85932641 9.20368219 11.60807995c10.01871307 12.64517991 21.36868063 23.99747325 33.73481958 33.73947112l11.66272492 9.20833263L224.58317087 619.05733147z" p-id="1527"></path><path d="M289.78909506 692.20428074l-114.89720399-47.55545759 23.93934018-103.56700155c-8.2421558-7.20854281-16.08784105-15.05887962-23.3859098-23.39637409l-103.61350801 23.99282282-47.61475409-114.85185986 90.22538382-56.34639222c-0.74061963-10.93489535-0.74294541-22.03256326-0.01046429-33.07326157l-90.22422038-56.27779487 47.55196949-114.88557738 103.61815957 23.93468863c7.21668246-8.24448044 15.06004194-16.08784105 23.37777128-23.37428319l-24.02072647-103.63676236 114.86116183-47.5996394 56.33360329 90.20561756c10.96396131-0.73015535 22.06279269-0.72899303 33.0744239 0.00232577l56.27081867-90.22654614 114.89720399 47.55661991-23.93468863 103.56467691c8.2421558 7.21203091 16.08900337 15.06236771 23.38358403 23.39753642l103.613508-23.98933473 47.61475411 114.84953522-90.22770847 56.34406757c0.74178196 10.97791369 0.74759584 22.07558275 0.0104643 33.07674969l90.22189572 56.27779486-47.55545759 114.89836631-103.59490634-23.99863557c-7.23993568 8.27238523-15.08562093 16.11690816-23.38009592 23.3707951l24.02770267 103.63908701-114.85302332 47.60080171-56.35453074-90.1695754c-10.96163667 0.74061963-22.06279269 0.74527006-33.08372587 0.00930083L289.78909506 692.20428074zM186.79296438 638.51807401l98.90702739 40.93871309 54.96746782-88.13374343 3.09618514 0.24416c12.54054039 0.99291814 25.21362393 0.98943119 37.66928994-0.00930083l3.09618517-0.2476481 55.04885523 88.08026078 98.86982178-40.97824334-23.47310996-101.23933968 2.36370516-2.01374107c9.55597095-8.14100325 18.51665548-17.09819969 26.62859163-26.61696502l2.01257875-2.36486748 101.19050744 23.44404285 40.93754966-98.90586507-88.13141766-54.97328169 0.24648577-3.09618515c0.99640624-12.50914752 0.99291814-25.18223219-0.01278893-37.66115029l-0.24881155-3.09851093 88.13955617-55.04071559-40.98754419-98.86400903-101.21143603 23.43241626-2.01025298-2.35905362c-8.2014621-9.60480317-17.16098317-18.56781234-26.63556783-26.64370635l-2.36486749-2.01374106 23.38242172-101.1614415-98.91051549-40.93638731-54.96514318 88.13374343-3.09386052-0.24532345c-12.53123841-0.99291814-25.20664774-0.99524392-37.66812648-0.0034881l-3.0938605 0.24648577L285.5174518 28.31488288l-98.8744722 40.97591757 23.46148335 101.22655075-2.35905362 2.01722917c-9.58271227 8.1840216-18.54107103 17.14470614-26.62859162 26.62742932l-2.01141643 2.36137938-101.21259836-23.38009593-40.93406155 98.89540078 88.13025535 54.974444-0.24299768 3.09386052c-0.9940816 12.56728171-0.99175582 25.23920295 0.01046429 37.66231376l0.24997387 3.09618515-88.13839385 55.04420367 40.98754418 98.86633368 101.20911026-23.43474202 2.01257876 2.36137939c8.2014621 9.60829013 17.16214662 18.56897466 26.63673013 26.64254402l2.36254172 2.01490453L186.79296438 638.51807401zM278.48563509 656.966131l-70.68906888-29.26087234 22.49879348-97.37114315-4.48789962-3.54265025c-13.24976715-10.43843571-25.40081432-22.58599364-36.10550094-36.10433747l-3.54265024-4.46697104-97.3990468 22.55809-29.28993943-70.67860458 84.83409086-52.9746542-0.67318461-5.66800815c-2.00444023-16.88659375-2.00909065-34.06385509-0.01162661-51.05625181l0.66272146-5.66103196-84.83525319-52.90838261 29.26203465-70.7006955 97.4129992 22.51507165 3.53916215-4.4797611c10.50935884-13.31952796 22.65342868-25.4670859 36.09038621-36.10201283l4.47743534-3.54846412-22.58134323-97.4176496 70.6646522-29.30389069 52.96884146 84.82246424 5.67033278-0.661558c16.94821491-1.99397594 34.1266397-1.99978982 51.05973992-0.01395238l5.67033278 0.67085996 52.90373221-84.82478889 70.69139352 29.25971002-22.49995695 97.3664916 4.48441152 3.53334941c13.27418382 10.46982745 25.42174177 22.62087349 36.11131368 36.11945219l3.53683636 4.46232061 97.4025349-22.55460191 29.28761365 70.67395417-84.83757895 52.9746542 0.67783616 5.66568238c2.00676487 16.90868466 2.01141643 34.08478367 0.01511471 51.05043907l-0.65923335 5.6668447 84.82478889 52.91187071-29.2550596 70.69255585-97.39323292-22.56739085-3.53916215 4.49487582c-10.47564133 13.28232235-22.62319925 25.43336838-36.10666326 36.11828985l-4.46929681 3.54148793 22.58018091 97.40137145-70.66232756 29.30040371-52.98511849-84.76781814-5.67382089 0.661558c-16.90752234 1.9881632-34.08013211 1.9881632-51.03532435 0.00813851l-5.67963477-0.67667271L278.48563509 656.966131zM219.69763837 621.57450838l54.7000546 22.64296439 51.76896779-82.99591243 12.10802769 1.43473282c16.15876418 1.89398685 32.53145781 1.88817297 48.6541787-0.0069762l12.09988918-1.41147959 51.82593853 82.91336269 54.68028947-22.67435613-22.089534-95.2702008 9.53736814-7.55618113c12.86492435-10.19194993 24.44277488-21.77793897 34.42428232-34.43590894l7.55153073-9.588525 95.2748512 22.07790739 22.64180207-54.6965665-82.97730963-51.75966582 1.41031614-12.09523762c1.90445114-16.17504121 1.89979959-32.54308442-0.01162661-48.65650449l-1.44287134-12.10105149 82.99707475-51.82826317-22.66272952-54.68726452-95.26787613 22.06046803-7.55618114-9.52806616c-10.19776381-12.88120138-21.77677665-24.4660281-34.42428234-34.44172283l-9.57573607-7.54222874 22.00814773-95.24810988-54.69772882-22.64063975-51.75734119 82.98312237-12.10337727-1.43240705c-16.13434751-1.89282339-32.51285614-1.88933643-48.67161919 0.01278893l-12.09872571 1.41496769-51.81198614-82.97033342-54.6779637 22.67435612 22.08720936 95.28415318-9.54318087 7.56664542c-12.81841791 10.14544348-24.39859421 21.72794443-34.41963193 34.42544466l-7.55385535 9.55945904-95.28299086-22.02442475-22.64645249 54.71284353 82.99009857 51.75152731-1.42078044 12.09640107c-1.90328768 16.19829445-1.89979959 32.56866342 0.00930084 48.65883026l1.44170902 12.10570191-82.99474897 51.82710085 22.66505529 54.69191608 95.26555037-22.06628077 7.55618113 9.53271772c10.21520317 12.89166568 21.79654178 24.47533008 34.42544466 34.42777043l9.57341028 7.55501881L219.69763837 621.57450838z" p-id="1528"></path><path d="M293.51195951 703.81236069l-129.45613588-53.58156722 24.47416663-105.88419914c-5.65986964-5.17619894-11.13138657-10.65120395-16.34711577-16.35758005l-105.9260563 24.52881272L12.60781594 423.10935991l92.23796257-57.60440009c-0.34647486-7.66314642-0.34880064-15.40302984-0.00465042-23.12082122l-92.24028722-57.53580271 53.57807914-129.44334695 105.93535713 24.47067966c5.17852471-5.65986964 10.64771587-11.12789848 16.33897725-16.33432682l-24.55787983-105.95279762 129.41893139-53.63156178 57.59277348 92.22284786c7.684075-0.34066213 15.40884258-0.34182445 23.11733312 0.00232578l57.52766307-92.24261299 129.45729933 53.58272955-24.47067966 105.88303681c5.6633566 5.18201281 11.13487353 10.65701783 16.34711575 16.35758005l105.92605631-24.52532463 53.64900225 129.40381669-92.24028721 57.60091198c0.34880064 7.69453816 0.35112528 15.4355839 0.00697619 23.12547164l92.2356368 57.53347695-53.58389301 129.46078742-105.91210391-24.53578892c-5.19015133 5.67382089-10.65934248 11.14068741-16.33781492 16.33083873l24.56369256 105.95163418-129.4084671 53.63272521-57.61253859-92.18099183c-7.69221352 0.35112528-15.42046919 0.35228875-23.13244783 0.00581388L293.51195951 703.81236069zM230.53254463 615.99253807l40.14228504 16.61685475 50.72372932-81.31934425 17.97020129 2.13000831c15.32745628 1.7963224 31.12811786 1.79516008 46.47301351-0.0081385l17.95392312-2.09396503 50.77023577 81.22516789 40.12717034-16.64010798-21.63958195-93.33203327 14.15199818-11.21161053c12.28707843-9.73385823 23.35451806-20.80478596 32.89537315-32.90467513l11.20230857-14.22292131 93.34947262 21.63028111 16.61336665-40.13414652-81.2914406-50.70745116 2.0928027-17.94694692c1.81957562-15.45651248 1.81725098-31.09323802-0.00930083-46.48347781l-2.14163494-17.95857467 81.32283236-50.78302472-16.63196948-40.13182074-93.32389474 21.61051486-11.21161054-14.13688347c-9.75478681-12.31963249-20.81990067-23.39288599-32.89769894-32.91862639l-14.20548081-11.19068195 21.56284608-93.3227313-40.13879695-16.61453012-50.71093926 81.30655533-17.96554973-2.12535791c-15.32164242-1.79748472-31.12579208-1.79516008-46.49161632 0.01395239l-17.95508658 2.10094123-50.75744571-81.28330211-40.12251991 16.63894567 21.63725618 93.34249756-14.15548628 11.22323715c-12.25801132 9.70130418-23.32428864 20.76758035-32.89537315 32.89886125l-11.21044708 14.18687801-93.34714798-21.57679733-16.61918053 40.15274933 81.30887997 50.70280075-2.10791744 17.9527608c-1.8184133 15.47395183-1.81608752 31.11067737 0.00813853 46.47766392l2.13930915 17.96438742-81.32050657 50.78186238 16.63313179 40.13530885 93.32273128-21.6151664 11.21161054 14.14502197c9.7687392 12.32893445 20.83501538 23.39753641 32.89421085 32.90002359l14.20664313 11.21044708L230.53254463 615.99253807z" p-id="1529"></path><path d="M324.73425371 445.19889391c-50.35400011-20.84199158-74.36193764-78.77310139-53.52343415-129.12012529 20.84082926-50.34934968 78.76612519-74.36658806 129.12128761-53.52459649 50.35051201 20.8396658 74.35612376 78.76961329 53.51762029 129.11896298C433.01006167 442.01899669 375.08476572 466.03856085 324.73425371 445.19889391zM394.93151338 275.60163646c-43.16289664-17.86439832-92.8053442 2.71250468-110.67206718 45.87656477-17.86556064 43.16289664 2.71134236 92.81115808 45.87423899 110.67555527 43.15824623 17.86323486 92.80650652-2.71948086 110.67206719-45.88005287C458.6701507 343.10731888 438.0897596 293.46487132 394.93151338 275.60163646z" p-id="1530"></path><path d="M362.3942417 462.01107757c-14.17292675 0-28.04123354-2.764825-41.21775293-8.21890257-55.09303591-22.80341232-81.36236261-86.17813542-58.56011262-141.27117135 16.7924174-40.56898387 56.0638643-66.78133983 100.048768-66.78133982 14.17525139 0 28.04588397 2.76598731 41.22472912 8.22122722 55.08954782 22.80108768 81.35771219 86.17464733 58.55546218 141.27000902C445.65175348 435.79872161 406.38030772 462.01107757 362.3942417 462.01107757zM362.64072632 278.46180013c-30.68397855 0-58.07760536 18.28179631-69.78800016 46.57416605-7.68988774 18.57943896-7.67244839 39.07379221 0.04999455 57.70555149 7.72360526 18.63175928 22.20812705 33.12907 40.78756599 40.81895775 9.18856749 3.80308841 18.85382837 5.73195509 28.72720822 5.73195508 30.68630319 0.00232578 58.08225577-18.27947054 69.79381405-46.57532837 15.9006518-38.42269851-2.41835013-82.61920702-40.83756055-98.52102113C382.18169283 280.39182914 372.51410618 278.46180013 362.64072632 278.46180013z" p-id="1531"></path><path d="M319.92661943 456.81627583c-56.76146557-23.49403742-83.82489455-88.78600059-60.33318179-145.54746502 23.49520086-56.76146557 88.7871629-83.82489455 145.54746502-60.33085713 56.75797747 23.49054931 83.82024412 88.78134904 60.32620559 145.54397691C441.97423429 453.24223384 376.68459689 480.30798861 319.92661943 456.81627583zM390.12387907 287.21901724c-36.75426999-15.21235135-79.03353842 2.31370949-94.24821554 39.06797947-15.21235135 36.75659463 2.31138484 79.03702652 39.06681715 94.24937787 36.75194421 15.21235135 79.03121377-2.31370949 94.24588978-39.07146757C444.40072294 344.70947583 426.87698674 302.43020627 390.12387907 287.21901724z" p-id="1532"></path><path d="M362.38377741 474.58649779c-15.82159015 0-31.3036805-3.08688432-46.0149218-9.17577855C254.87067887 439.95525994 225.54585959 369.21270957 250.99783078 307.71220817c18.74570077-45.28592877 62.581782-74.54680225 111.67893883-74.54680225 15.82391479 0 31.30716861 3.08804664 46.02073569 9.17810321 29.74570536 12.31033165 52.93396162 35.51137684 65.29312437 65.32800533s12.38357943 62.61898761 0.07092313 92.36701876C455.31701549 445.32446201 411.4809331 474.58649779 362.38377741 474.58649779zM362.67793194 251.76809925c-41.54446266 0-78.6335809 24.75204527-94.49121321 63.0573142-21.53029089 52.02242976 3.27523702 111.86380231 55.29650333 133.39525665 12.44403825 5.15061993 25.53103285 7.76197319 38.90055535 7.7619732 41.54446266 0 78.6335809-24.75204527 94.48888743-63.05963885 10.4128567-25.15665319 10.38960349-52.90373221-0.06627157-78.13014506-10.4558762-25.22525055-30.06776469-44.85109144-55.22325556-55.2616235C389.13793712 254.38061482 376.04745445 251.76809925 362.67793194 251.76809925zM362.44191047 435.3220271c-0.0034881 0-0.00232578 0-0.00697621 0-10.67910761 0-21.12568296-2.08350188-31.0490562-6.19120912-41.49330579-17.17377323-61.27843115-64.90479346-44.10465792-106.40158736 12.64750568-30.55376003 42.22346114-50.29702937 75.34787958-50.29702936 10.67794529 0 21.12568296 2.08350188 31.05254431 6.19120912 41.49214233 17.17377323 61.27610651 64.90246882 44.10233328 106.39809927C425.13530931 415.57643199 395.56051617 435.3220271 362.44191047 435.3220271zM362.62909972 291.03489458c-25.57172656 0-48.39955442 15.23327994-58.15899278 38.80870476-13.25093061 32.01872113 2.01374107 68.84740235 34.03013756 82.09833183 7.65617022 3.16943405 15.70997331 4.77624142 23.93585209 4.77740375 0.00116232 0 0.0034881 0 0.00465042 0 25.567075 0 48.39374167-15.23444226 58.1531789-38.81102942 13.25093061-32.01755882-2.01374107-68.84507659-34.02781292-82.09484372C378.90761927 292.64286427 370.85381503 291.03489458 362.62909972 291.03489458z" p-id="1533"></path><path d="M697.89030997 992.27966158l-67.09642294-37.1763184 23.270806-65.64076269c-5.77148535-6.17958138-11.08836709-12.86492435-15.87623513-19.97231574l-69.23457093 7.92590923-21.15474892-73.71549438 62.91895604-29.98637725c0.28020329-8.48282769 1.25103052-16.97611969 2.88109225-25.34500592l-54.55820833-43.33380885 37.17050452-67.0859598 65.67564252 23.27313064c6.19702186-5.78543774 12.87422633-11.09418096 19.95952682-15.87391048l-7.94567549-69.24968451 73.71898247-21.14544809 29.9805645 62.90267901c8.50259283 0.2918299 16.98890862 1.26498292 25.34500592 2.8903931l43.32799613-54.55820833 67.09758641 37.1728303-23.27313065 65.6489012c5.77497344 6.17725673 11.09185518 12.86143625 15.87972322 19.96882764l69.23340748-7.92939731 21.15474892 73.71665667-62.92011949 29.98288917c-0.28136562 8.48864157-1.24405547 16.97379391-2.8799288 25.348494l54.5593718 43.33264654-37.17515495 67.09526064-65.65820317-23.31149857c-6.18423293 5.77613576-12.86608667 11.0965056-19.96185146 15.8680966l7.95148822 69.25433606-73.71665667 21.14661041-29.99567924-62.88291389c-8.5118948-0.28252793-16.99355904-1.25219398-25.34965632-2.88341689L697.89030997 992.27966158zM653.74030792 946.41588574l39.34934509 21.8046803 40.77942748-51.34924402 5.77381112 1.36497201c10.75235651 2.51252648 21.80119334 3.77634709 32.8442163 3.73681568l5.92612054-0.01511469 28.22377238 59.16353753 43.23614555-12.4114842-7.47944526-65.13500221 5.02970339-3.12990267c9.46411923-5.88658916 18.17134294-12.81492981 25.87983348-20.58736728l4.18444312-4.22513682 61.77837889 21.9407127 21.80002988-39.34934509-51.33645509-40.77710171 1.3498573-5.77264767c2.53345393-10.78142248 3.78681024-21.82328311 3.73449104-32.83840242l-0.03022942-5.93077095 59.21120745-28.2167962-12.40218222-43.23847018-65.13267643 7.46316709-3.12757803-5.02853994c-5.89821576-9.48621014-12.82423063-18.19110806-20.58155342-25.88332157l-4.21583484-4.17862925 21.89188045-61.77024036-39.35050739-21.80002988-40.77245129 51.33877972-5.77264767-1.35915926c-10.7593327-2.52415311-21.81281995-3.77867173-32.85119249-3.74146611l-5.92844517 0.02092858-28.20982-59.19841738-43.2349821 12.41380884 7.47711949 65.14314072-5.04016655 3.13455423c-9.42923939 5.8621736-18.14111351 12.796327-25.86936918 20.57922876l-4.17862925 4.20653401-61.79233128-21.90350707-21.80468029 39.35632127 51.34575592 40.77012551-1.35450885 5.77381114c-2.5276412 10.78374825-3.78913602 21.8302593-3.7368157 32.83956587l0.02674132 5.9365837-59.21004398 28.21679619 12.40450801 43.23381976 65.13035179-7.45735435 3.12874034 5.02853994c5.89937922 9.48504782 12.82423063 18.18878228 20.58271687 25.87867002l4.21351021 4.18328079L653.74030792 946.41588574z" p-id="1534"></path><path d="M791.55951728 1014.59591624l-30.99789936-64.9861809c-5.17968703-0.34996297-10.36402448-0.94059896-15.50766935-1.76609296l-44.78016831 56.38941169-80.87985534-44.8127235 24.0521182-67.84401877c-3.40778018-3.9065656-6.6539501-7.99218193-9.70828036-12.2161553l-71.55293084 8.19216011-25.50080341-88.86041067 65.02338536-30.98859738c0.34880064-5.16806041 0.9394355-10.34890977 1.76493065-15.49953083l-56.38592361-44.7871445 44.80574731-80.86822874 67.87889861 24.05328167c3.9030775-3.40545554 7.98404342-6.64929968 12.20220405-9.70362996l-8.21192638-71.57153363 88.86622455-25.48917682 30.98510928 65.01059644c5.17271084 0.35345106 10.35472365 0.94524937 15.49604275 1.76841876l44.78016829-56.38708593 80.88101881 44.8092354-24.05328165 67.84867033c3.40778018 3.9030775 6.65511356 7.98869383 9.71060499 12.21499297l71.55060506-8.19564822 25.50196573 88.861573-65.02454882 30.98510929c-0.34880064 5.18201281-0.93827319 10.36635025-1.76260488 15.50418125l56.38708594 44.7836564-44.81388583 80.88101882-67.85913348-24.09397425c-3.91354179 3.41475638-7.99334426 6.65743821-12.20220404 9.70014185l8.2165768 71.57153364L791.55951728 1014.59591624zM737.45242331 927.50392318l5.54941512 1.08476985c7.87591467 1.53704769 15.90995264 2.4509042 23.87539325 2.71599276l5.65172999 0.18835272 29.03996557 60.87847364 58.57290267-16.80288169-7.69802624-67.04642839 4.69485398-3.15896977c6.63534729-4.46232062 12.96142534-9.49086055 18.80499616-14.94726278l4.13212278-3.85889569 63.55842426 22.56506619 29.53526176-53.30950357-52.81653205-41.94790827 1.08360641-5.54941512c1.53472192-7.86312574 2.44625377-15.89483792 2.71134234-23.8742298l0.18835271-5.65405576 60.91567927-29.02717664-16.80869557-58.57290267-67.02317518 7.67709881-3.15780744-4.68671549c-4.49720045-6.67604102-9.53039193-13.00676948-14.96005284-18.8131358l-3.86122147-4.13096045 22.5290229-63.5526104-53.31299054-29.5364252-41.94209554 52.81420626-5.54709047-1.08011831c-7.88754129-1.53472192-15.92390502-2.4509042-23.88701987-2.72529474l-5.64591725-0.19416546-29.02252508-60.89126257-58.57290267 16.80055705 7.69105119 67.03247715-4.68206508 3.15896977c-6.66674018 4.49720045-12.99746863 9.53155426-18.81546043 14.96237748l-4.12979814 3.85424527-63.5758636-22.52786058-29.53409944 53.30485204 52.81420627 41.94907172-1.08011831 5.54592816c-1.53821001 7.90381945-2.4509042 15.93669395-2.71483045 23.87539324l-0.18602693 5.65405577-60.91567926 29.03182704 16.80985788 58.57173923 67.02317518-7.67361071 3.15780744 4.68671549c4.49487581 6.67139059 9.52806617 13.00444484 14.96005285 18.82127431l3.85657105 4.12979815-22.52553481 63.54098377 53.31299054 29.53874984L737.45242331 927.50392318zM801.63287531 992.23431745l-29.12367764-60.96102339-0.52785137 0.00116232c-11.55692308 0-23.14988832-1.33939414-34.45567408-3.98213914l-0.04766991-0.01162661-42.00604246 52.8932679-53.13045172-29.44108653 22.55227613-63.63748476-0.03022941-0.03022943c-8.27354754-8.2014621-15.65300257-17.47722975-21.92792376-27.56686481l-0.01976512-0.03139175-67.11037534 7.68407501-16.74939905-58.37757376 60.99473976-29.10274906c-0.05580842-11.71620869 1.28358573-23.49403742 3.98213915-35.00445403l0.00813852-0.03371752-52.89791833-42.00371669 29.44108653-53.13859023 63.66422722 22.56622852 0.02557902-0.025579c8.25145664-8.30842737 17.52257387-15.68555778 27.55756397-21.92327334l0.03836793-0.02441555-7.70384013-67.12083963 58.38106188-16.76218798 29.09809863 60.99125281 0.51157434-0.00116232c11.60924227 0 23.21499758 1.34171879 34.49520547 3.98911534l0.03487984 0.00813852 42.00139091-52.88629171 53.13277749 29.43527265-22.55227613 63.63399781 0.025579 0.025579c8.28284838 8.2130887 15.66114109 17.491181 21.93257418 27.57732911l0.0186028 0.02906709 67.11153766-7.68988774 16.74591095 58.38571229-60.99125281 29.09112243c0.05580842 11.75341317-1.28358573 23.53240534-3.98097568 35.01375489l-0.0069762 0.025579 52.89210559 42.01301753-29.43759844 53.13510325-63.64097287-22.60110836-0.02674131 0.02674133c-8.22587763 8.29447498-17.50280875 15.67393115-27.57616565 21.94071269l-0.03022942 0.01976513 7.70616477 67.11502575L801.63287531 992.23431745zM784.27423746 912.64153477l27.36688549 57.36605283 28.09239041-8.06426739-7.25156229-63.15614096 10.02685158-6.24004021c8.84906769-5.50407213 16.98658398-11.97780803 24.1916387-19.24099695l8.3351687-8.41655612 59.91462146 21.28031701 14.16246247-25.56242458-49.7808046-39.5423482 2.69041491-11.50809086c2.36602981-10.06870761 3.53916215-20.38622565 3.49032992-30.67700236l-0.06162117-11.83131249 57.43116209-27.36804895-8.05845351-28.0923904-63.15265289 7.23644758-6.2365521-10.02685158c-5.50872255-8.85953198-11.98013381-16.99821059-19.23285844-24.1916387l-8.4049295-8.32935596 21.23148479-59.90532063-25.56707499-14.16478711-39.54467286 49.79126889-11.51622937-2.71134235c-9.88268068-2.31836104-20.05835358-3.49498034-30.23983923-3.49498033l-12.26963793 0.04185602-27.35525888-57.40558307-28.08773999 8.06542969 7.24923651 63.16544182-10.03964052 6.24469176c-8.81186321 5.47849312-16.94705258 11.94874207-24.18233786 19.23518421l-8.3316806 8.38865134-59.92159766-21.24078676-14.1682752 25.57288886 49.79359466 39.5376978-2.70204151 11.51506705c-2.36370517 10.09079739-3.53916215 20.41064119-3.49032993 30.67118961l0.05464497 11.83945101-57.42534821 27.36572317 8.05961697 28.08890233 63.14916478-7.23063372 6.23771556 10.02452581c5.51221064 8.86302008 11.98478423 16.9993729 19.23402076 24.18698827l8.40144141 8.33981912-21.22683437 59.90066907 25.567075 14.1682752 39.55397482-49.80522126 11.52320556 2.72413128c9.89663193 2.31254716 20.06532865 3.48800528 30.19914551 3.48800527L784.27423746 912.64153477z" p-id="1535"></path><path d="M698.75649771 996.62920304l-72.11217396-39.95044424 23.54635773-66.42672644c-4.88785713-5.36571397-9.46411923-11.1255727-13.64740002-17.16447126l-70.05308874 8.02008557-22.73830308-79.23119196 63.66306378-30.33982832c0.33368593-7.25737504 1.16499383-14.56823384 2.47648319-21.78607863l-55.20465276-43.85003364 39.95044425-72.10287311 66.45811817 23.5486835c5.37152784-4.88902059 11.12789848-9.46877079 17.15400811-13.64391192l-8.03752606-70.06820346 79.23235542-22.73249033 30.33401558 63.65143715c7.27830362 0.34182445 14.58683665 1.17778276 21.78724096 2.48810982l43.8407328-55.20814086 72.1133374 39.95393234-23.54519541 66.42207602c4.88902059 5.37269016 9.46993311 11.13138657 13.6462377 17.17028514l70.05308875-8.02008557 22.74179117 79.22886731-63.66538956 30.33866601c-0.33717404 7.28993022-1.16848192 14.59962559-2.47880896 21.78724095l55.20232697 43.85003363-39.95044423 72.11449973-66.44067884-23.58937608c-5.39013065 4.9041353-11.14417551 9.48272204-17.15517042 13.63809918l8.04566457 70.07285388-79.23119196 22.72900224-30.35029261-63.62702163c-7.27597784-0.33601057-14.58683665-1.16731846-21.79189138-2.47880896L698.75649771 996.62920304zM634.94228683 953.53374143l62.077185 34.39405291 42.82688607-53.92804208 2.02071727 0.39181899c8.18518507 1.59866885 16.53430501 2.54740632 24.8125041 2.82528384l2.06024865 0.06975968 29.64687859 62.15392085 68.20328372-19.56654436-7.85963764-68.44976949 1.70912224-1.14871679c6.90392398-4.64950987 13.47765011-9.87454217 19.53980304-15.53789877l1.50449249-1.40334109 64.89316685 23.04059726 34.39405292-62.07602154-53.92571744-42.82804838 0.39530708-2.02187959c1.59518074-8.16658226 2.54391823-16.51221525 2.82063343-24.81017833l0.06859735-2.05908519 62.18996301-29.63408853L972.74741532 684.74227597l-68.4288409 7.831734-1.14871679-1.70214604c-4.67857698-6.94810578-9.90709624-13.52183192-15.54254919-19.55259198l-1.40799151-1.50565596 23.00106701-64.87805213-62.07950963-34.39870335-42.82572375 53.93036788-2.01722917-0.39414478c-8.18053351-1.59518074-16.53081806-2.54740632-24.81482874-2.83342235l-2.0555971-0.06859735-29.62827579-62.1748483-68.2056095 19.56538203 7.85266146 68.44163098-1.70679646 1.15104144c-6.92717719 4.67276423-13.4985787 9.90128349-19.54096537 15.54371265l-1.50333017 1.40217762-64.91525775-23.00339164-34.38823905 62.07020878 53.92222935 42.8315365-0.391819 2.01839262c-1.59983117 8.20378787-2.54624401 16.54825741-2.82179574 24.80785255l-0.06627157 2.0590852-62.19461343 29.63757663 19.57700866 68.19979561 68.42767858-7.831734 1.14755333 1.70563414c4.67857698 6.94578 9.91058432 13.52299424 15.54487497 19.55026733l1.40566572 1.5044925L634.94228683 953.53374143zM693.95700305 972.56894631l-44.3662584-24.58345767 22.13139004-62.45040119-2.69041491-2.668324c-7.94451202-7.87359003-15.03330062-16.78660466-21.07103685-26.49488502l-1.99746404-3.20780199-65.85353094 7.5433922-13.98573636-48.75184316 59.85997649-28.52490312-0.01860281-3.78564792c-0.05232032-11.27555746 1.23591582-22.58831942 3.82634164-33.63250469l0.86269964-3.68217074-51.90965061-41.21891524 24.58578347-44.3767227 62.47249208 22.14999285 2.668324-2.68692681c7.92358458-7.98520574 16.83427343-15.07283201 26.48558305-21.06987454l3.21477818-2.00327791-7.55501881-65.86283292 48.74370464-13.99503833 28.52257848 59.84834989 3.78332214-0.00930084c11.31392541-0.03953026 22.6325001 1.24405547 33.6359928 3.82517818l3.68682114 0.86967582 41.21659061-51.90267441 44.36858418 24.5799696L872.44402305 672.92724163l2.68925144 2.66367359c7.95613865 7.89335516 15.04492723 16.80985787 21.07336264 26.50418585l1.99630173 3.20896432 65.85585671-7.54455452 13.98224827 48.75300662-59.86113883 28.52257846 0.02092858 3.78215984c0.04999455 11.29299682-1.23591582 22.60459645-3.82169007 33.63366815l-0.86269963 3.67868263 51.9061625 41.22472913-24.58462114 44.36742185-62.45853969-22.17673417-2.66832399 2.69506532c-7.8991679 7.96195251-16.81102021 15.0542292-26.49488503 21.07685074l-3.20896431 2.00095213 7.55966922 65.85701904-48.74951851 13.99155024-28.53885551-59.81579469-3.78564792 0.01046429c-11.28602063 0.04069371-22.59878372-1.24754357-33.61738999-3.82866627l-3.69030924-0.86967583L693.95700305 972.56894631zM657.88870887 944.84395822l34.33126831 19.01892785 40.3329624-50.78186239 7.87010193 1.85445545c10.49889454 2.46369426 21.28613089 3.68798347 32.04895055 3.65077786l8.07356821-0.02092858 27.91217736 58.50895573 37.72160914-10.8302547-7.3957332-64.41531001 6.8527671-4.25885433c9.23507395-5.7470698 17.73417868-12.5114733 25.26013039-20.09904617l5.6959118-5.74939443 61.10054274 21.69887846 19.0212525-34.32778134-50.77372388-40.3294743 1.83934076-7.86196341c2.46834467-10.51052116 3.69612198-21.29078132 3.64612742-32.04895056l-0.03953024-8.07938209 58.5601126-27.90752694-10.8197904-37.72509723-64.41182193 7.37829271-4.26350475-6.84462859c-5.7470698-9.24902634-12.50565942-17.75161917-20.08625723-25.27175813l-5.7435817-5.68544752 21.65004624-61.0912419-34.32894366-19.02009018-40.3259862 50.7748862-7.86428806-1.85096736c-10.48494216-2.45788038-21.27682892-3.68914693-32.06174063-3.64961553l-8.07356821 0.02441554-27.89938843-58.5415098-37.72044682 10.82793006 7.39689553 64.42112388-6.85857985 4.26815518c-9.20251989 5.7214908-17.70278694 12.48124387-25.25547996 20.08974532l-5.6959118 5.73311743-61.10984471-21.66516096-19.02706637 34.33940795 50.78302471 40.3224981-1.84515462 7.85847533c-2.46950701 10.53028628-3.69728544 21.31403453-3.64845322 32.05476443l0.04185604 8.08170674-58.56243839 27.90636347 10.82444195 37.72974765 64.40949729-7.38526891 4.25769087 6.84695323c5.76334683 9.26646569 12.52193758 17.76324577 20.08974533 25.26594427l5.74358171 5.69474948L657.88870887 944.84395822z" p-id="1536"></path><path d="M789.73761587 1018.64200117L758.35138563 952.84195288c-3.96121056-0.3139208-7.92707269-0.76387287-11.86851811-1.3498573l-45.3417372 57.09166341-85.89676982-47.58684933 24.35208663-68.69974336c-2.56717145-3.01363654-5.04946851-6.1354007-7.42828726-9.34669079l-72.44702334 8.29563844-27.08435756-94.37494595 65.83609046-31.37460363c0.3139208-3.95423438 0.76387287-7.91893416 1.34985729-11.86154191l-57.09282573-45.3487134 47.5880128-85.88397976 68.7322974 24.35441241c3.01712464-2.57182187 6.1354007-5.05295661 9.33390072-7.42363683l-8.31191547-72.46446271 94.37843405-27.07738136 31.37111554 65.8291154c3.95772246 0.31508312 7.9212588 0.76852327 11.8603796 1.35567118l45.33824909-57.09515038 85.89793214 47.59150088-24.35208662 68.69741758c2.57647343 3.0240997 5.05993281 6.14818963 7.43061303 9.34901543l72.44469756-8.29447498 27.08900798 94.37262132-65.84074199 31.37460363c-0.3139208 3.96469866-0.76387287 7.92823499-1.34869498 11.86270424l57.0881753 45.34755107-47.58801279 85.90142023-68.71602038-24.39743075c-3.02642548 2.57879806-6.14353921 5.05876936-9.33157607 7.42014874l8.32005398 72.4644627L789.73761587 1018.64200117zM786.40773388 909.25003163l27.05529047 56.71146989 22.57901744-6.48303789-7.16901254-62.43993688 11.85456571-7.36899188c8.61420967-5.35990122 16.54360699-11.66970111 23.56612286-18.74918885l9.84896316-9.94081375 59.235623 21.03731935 11.38252275-20.54202316-49.21807336-39.09355848 3.18106066-13.59856779c2.30440865-9.81059523 3.44847389-19.864187 3.40196744-29.88755049l-0.06859735-13.97992363 56.77774261-27.05761623-6.47606282-22.58018091-62.42714796 7.15040973-7.37364229-11.83712522c-5.37036438-8.64211331-11.67435266-16.57383641-18.74221267-23.58588913l-9.93267523-9.83036036 20.99081289-59.23097257-20.5478359-11.38368508-39.09472078 49.22621189-13.60903209-3.20315157c-9.62689294-2.25673874-19.52933876-3.40312976-29.42480837-3.40312977l-14.44266575 0.04185603-27.04482618-56.74518741-22.57436703 6.4795498 7.17017487 62.44226265-11.85689148 7.37829272c-8.5979315 5.34594884-16.5261665 11.6510983-23.56844865 18.74570076l-9.85361359 9.91523475-59.23562298-21.0012772-11.39066127 20.55597555 49.23202576 39.09007038-3.1938496 13.60089358c-2.30208287 9.81757143-3.44731157 19.8746513-3.40196745 29.88638816l0.07324777 13.97992364-56.7812307 27.0564539 6.47838746 22.58483134 62.43063606-7.15738594 7.36782843 11.84526488c5.37734058 8.64560141 11.68249118 16.5773245 18.73872456 23.57193674l9.93383754 9.84896317-20.99197521 59.22399636 20.55016168 11.38368508 39.10518509-49.23551386 13.61484596 3.207802c9.61991674 2.2579022 19.52701411 3.40429322 29.43643497 3.40429322L786.40773388 909.25003163z" p-id="1537"></path><path d="M740.32537705 836.54954746c-31.6059747-17.50978382-43.06755797-57.47301811-25.56126226-89.07201661 17.51094726-31.60248661 57.46836769-43.06872142 89.07201662-25.56242458 31.60248661 17.51327191 43.06639564 57.47185579 25.55661184 89.07666702C811.88528408 842.5872837 771.92437555 854.05933127 740.32537705 836.54954746zM799.30056301 730.10726639c-27.0901703-15.01004739-61.33656423-5.18666322-76.34777506 21.90699517-15.00888507 27.09133375-5.18201281 61.34005231 21.90815862 76.34893739 27.08900798 15.00655929 61.33656423 5.17619894 76.34777508-21.90932096C836.21644326 779.36022074 826.3860829 745.11382568 799.30056301 730.10726639z" p-id="1538"></path><path d="M771.96506814 854.04770465c-12.59402304 0-25.09386971-3.23803141-36.14851929-9.36413014-36.08922275-19.99208088-49.18435585-65.62215987-29.18878689-101.71487073 13.17651938-23.78005457 38.29945506-38.5517547 65.56751491-38.55175471 12.59402304 0 25.09386971 3.23686796 36.14851929 9.36064204 36.08806045 19.99789475 49.18086776 65.6302984 29.18762456 101.72068462C824.35257556 839.27600452 799.2308022 854.04770465 771.96506814 854.04770465zM772.17202365 732.37912097c-17.09006117 0-32.83258969 9.25135097-41.08288401 24.14280647-12.52309991 22.60343414-4.32396359 51.1818199 18.27947056 63.70491981 6.91903869 3.83331783 14.73914608 5.85984783 22.61389842 5.86101128 0.00116232 0 0.00232578 0 0.0034881 0 17.09006117 0 32.833752-9.25135097 41.0875344-24.14280646 12.52077413-22.60227067 4.3204755-51.18065758-18.28063286-63.70143172C787.86920803 734.40681443 780.04793832 732.37912097 772.17202365 732.37912097z" p-id="1539"></path><path d="M736.28394253 843.84064001c-35.62531831-19.73745659-48.54721341-64.77690073-28.81092029-100.40454369 19.73978237-35.624156 64.78155115-48.54605109 100.40686946-28.80975682 35.62066791 19.7386189 48.54605109 64.77573727 28.80626874 100.40221904C816.94986731 850.65271342 771.90809739 863.57925892 736.28394253 843.84064001zM795.26028967 737.3960343c-23.06733858-12.78004997-52.23403456-4.41000029-65.01641031 18.65966292-12.78004997 23.07082667-4.40883797 52.23519802 18.65733829 65.01641031 23.06733858 12.78004997 52.23287225 4.40767566 65.01524685-18.6585006C826.69651446 779.34510603 818.32879171 750.17957237 795.26028967 737.3960343z" p-id="1540"></path><path d="M771.95460497 862.38287335c-13.99736298 0-27.89124878-3.59845866-40.17832719-10.4058805-40.10856752-22.22091598-54.66168667-72.93418101-32.43960723-113.04739895 14.64380739-26.42861231 42.56528559-42.8466512 72.87023407-42.84665121 13.99852645 0 27.89241223 3.59962099 40.18181529 10.40588052 40.1074052 22.22440407 54.65819856 72.93650565 32.43495682 113.04623663C830.17986934 845.96483447 802.25839 862.38287335 771.95460497 862.38287335zM772.20690349 714.68563488c-23.54403309 0-45.2301215 12.74400668-56.59752842 33.25696273-17.2505091 31.14090679-5.95402418 70.51118046 25.1822322 87.76052612 9.53504236 5.28316422 20.31181441 8.07589399 31.1629977 8.07589399 23.54286963 0 45.2301215-12.74400668 56.59636609-33.25928852 17.25283488-31.13741871 5.95751229-70.50652891-25.17874409-87.75936379C793.83602115 717.47952698 783.05924908 714.68563488 772.20690349 714.68563488zM771.99878565 836.35654432c-0.00116232 0-0.00232578 0-0.0034881 0-9.6175921 0-19.1619353-2.47183278-27.60174466-7.14692164-27.55291242-15.26815977-37.54953459-50.10635201-22.28602522-77.66042789 10.0605691-18.15739054 29.24110722-29.43643497 50.05635746-29.43643497 9.6175921 0 19.16309876 2.47183278 27.60407043 7.14808511 27.55291242 15.26815977 37.54953459 50.10635201 22.28486291 77.6615902C811.98992359 825.0774999 792.8105478 836.35654432 771.99878565 836.35654432zM772.16388513 740.71428968c-14.05433372 0-27.00064551 7.60617568-33.7836518 19.84907229-10.2942648 18.58176474-3.55195108 42.07580215 15.02981253 52.37355504 5.68777328 3.15083125 12.11500389 4.81693514 18.58641515 4.81693514 14.0531714 0.00116232 26.99948318-7.60385104 33.78481524-19.84790997 10.2942648-18.58176474 3.55311454-42.07580215-15.02981251-52.37355505C785.06252699 742.38155589 778.63529641 740.71428968 772.16388513 740.71428968z" p-id="1541"></path></svg>